<svg height="300px" width="300px" fill="#000000" xmlns="http://www.w3.org/2000/svg" xmlns:xlink="http://www.w3.org/1999/xlink" version="1.1" x="0px" y="0px" viewBox="0 0 60 60" style="enable-background:new 0 0 60 60;" xml:space="preserve"><g><path d="M59,60H1c-0.552,0-1-0.448-1-1V25c0-0.552,0.448-1,1-1h10v2H2v32h56V26h-9v-2h10c0.552,0,1,0.448,1,1v34   C60,59.552,59.552,60,59,60z"/><path d="M59,60c-0.191,0-0.382-0.055-0.548-0.164L35.61,44.871c-0.265-0.174-0.432-0.463-0.451-0.779   c-0.018-0.316,0.115-0.623,0.358-0.825L58.36,24.232c0.298-0.248,0.713-0.301,1.064-0.138C59.775,24.259,60,24.612,60,25v34   c0,0.367-0.202,0.705-0.524,0.88C59.327,59.96,59.163,60,59,60z M37.836,43.938L58,57.149V27.135L37.836,43.938z"/><path d="M1,60c-0.163,0-0.327-0.04-0.476-0.12C0.202,59.705,0,59.367,0,59V25c0-0.388,0.225-0.741,0.576-0.906   c0.351-0.164,0.766-0.111,1.064,0.138l22.842,19.035c0.244,0.203,0.376,0.509,0.358,0.825c-0.019,0.316-0.186,0.605-0.451,0.779   L1.548,59.836C1.382,59.945,1.191,60,1,60z M2,27.135v30.014l20.164-13.211L2,27.135z"/><path d="M57,8h-8c-0.552,0-1-0.448-1-1V5c0-2.757,2.243-5,5-5s5,2.243,5,5v2C58,7.552,57.552,8,57,8z M50,6h6V5   c0-1.654-1.346-3-3-3s-3,1.346-3,3V6z"/><path d="M44,11h-8c-0.552,0-1-0.448-1-1s0.448-1,1-1h8c0.552,0,1,0.448,1,1S44.552,11,44,11z"/><path d="M32,11H22c-0.552,0-1-0.448-1-1s0.448-1,1-1h10c0.552,0,1,0.448,1,1S32.552,11,32,11z"/><path d="M36,7H25c-0.552,0-1-0.448-1-1s0.448-1,1-1h11c0.552,0,1,0.448,1,1S36.552,7,36,7z"/><path d="M18,11h-2c-0.552,0-1-0.448-1-1s0.448-1,1-1h2c0.552,0,1,0.448,1,1S18.552,11,18,11z"/><path d="M21,7h-5c-0.552,0-1-0.448-1-1s0.448-1,1-1h5c0.552,0,1,0.448,1,1S21.552,7,21,7z"/><path d="M44,7h-4c-0.552,0-1-0.448-1-1s0.448-1,1-1h4c0.552,0,1,0.448,1,1S44.552,7,44,7z"/><g><path d="M59,26H49c-0.552,0-1-0.448-1-1v-8.276c0-0.387,0.224-0.74,0.574-0.905c0.351-0.166,0.764-0.113,1.063,0.134l10,8.276    c0.325,0.269,0.446,0.712,0.303,1.109C59.798,25.735,59.422,26,59,26z M50,24h6.223L50,18.85V24z"/><path d="M11,26H1c-0.422,0-0.798-0.265-0.941-0.661c-0.143-0.397-0.021-0.84,0.303-1.109l10-8.276    c0.299-0.248,0.713-0.3,1.063-0.134C11.776,15.984,12,16.337,12,16.724V25C12,25.552,11.552,26,11,26z M3.777,24H10v-5.15    L3.777,24z"/></g><g><path d="M49,26c-0.552,0-1-0.448-1-1V5c0-1.125,0.374-2.164,1.002-3H15c-1.654,0-3,1.346-3,3v20c0,0.552-0.448,1-1,1s-1-0.448-1-1    V5c0-2.757,2.243-5,5-5h38c0.552,0,1,0.448,1,1s-0.448,1-1,1c-1.654,0-3,1.346-3,3v20C50,25.552,49.552,26,49,26z"/></g><path d="M23.842,45.035c-0.228,0-0.456-0.078-0.64-0.232L10.36,34.102C10.132,33.912,10,33.63,10,33.333V5c0-2.757,2.243-5,5-5h38   c0.552,0,1,0.448,1,1s-0.448,1-1,1c-1.654,0-3,1.346-3,3v28.333c0,0.297-0.132,0.578-0.36,0.768L36.798,44.803   c-0.339,0.283-0.821,0.309-1.188,0.068l-3.322-2.176c-1.391-0.911-3.187-0.911-4.576,0c0,0,0,0,0,0l-3.322,2.176   C24.223,44.98,24.032,45.035,23.842,45.035z M30,40.011c1.178,0,2.356,0.337,3.384,1.011l2.703,1.771L48,32.865V5   c0-1.125,0.374-2.164,1.002-3H15c-1.654,0-3,1.346-3,3v27.865l11.913,9.927l2.703-1.771C27.644,40.348,28.822,40.011,30,40.011z"/><g><path d="M59,60c-0.191,0-0.382-0.055-0.548-0.164L35.61,44.871c-0.265-0.174-0.432-0.463-0.451-0.779    c-0.018-0.316,0.115-0.623,0.358-0.825L48,32.865V25c0-0.552,0.448-1,1-1h10c0.552,0,1,0.448,1,1v34    c0,0.367-0.202,0.705-0.524,0.88C59.327,59.96,59.163,60,59,60z M37.836,43.938L58,57.149V26h-8v7.333    c0,0.297-0.132,0.578-0.36,0.768L37.836,43.938z M49,33.333h0.01H49z"/><path d="M1,60c-0.163,0-0.327-0.04-0.476-0.12C0.202,59.705,0,59.367,0,59V25c0-0.552,0.448-1,1-1h10c0.552,0,1,0.448,1,1v7.865    l12.482,10.401c0.244,0.203,0.376,0.509,0.358,0.825c-0.019,0.316-0.186,0.605-0.451,0.779L1.548,59.836    C1.382,59.945,1.191,60,1,60z M2,26v31.149l20.164-13.211L10.36,34.102C10.132,33.912,10,33.63,10,33.333V26H2z"/></g><path d="M31,36c-3.86,0-7-4.038-7-9s3.14-9,7-9s7,4.038,7,9S34.86,36,31,36z M31,20c-2.757,0-5,3.14-5,7s2.243,7,5,7s5-3.14,5-7   S33.757,20,31,20z"/><path d="M28,21.083c-0.552,0-1-0.448-1-1C27,18.412,25.626,17,24,17c-0.552,0-1-0.448-1-1s0.448-1,1-1c2.757,0,5,2.28,5,5.083   C29,20.635,28.552,21.083,28,21.083z"/><path d="M25.437,25C22.541,25,20,22.664,20,20c0-0.552,0.448-1,1-1s1,0.448,1,1c0,1.689,1.848,3,3.437,3c0.552,0,1,0.448,1,1   S25.989,25,25.437,25z"/><path d="M25,29h-4c-0.552,0-1-0.448-1-1s0.448-1,1-1h4c0.552,0,1,0.448,1,1S25.552,29,25,29z"/><path d="M22,37c-0.552,0-1-0.448-1-1c0-2.664,2.485-5,5.317-5c0.552,0,1,0.448,1,1s-0.448,1-1,1C24.581,33,23,34.43,23,36   C23,36.552,22.552,37,22,37z"/><path d="M34,21.083c-0.552,0-1-0.448-1-1C33,17.28,35.243,15,38,15c0.552,0,1,0.448,1,1s-0.448,1-1,1c-1.626,0-3,1.412-3,3.083   C35,20.635,34.552,21.083,34,21.083z"/><path d="M36.563,25c-0.552,0-1-0.448-1-1s0.448-1,1-1C38.152,23,40,21.689,40,20c0-0.552,0.448-1,1-1s1,0.448,1,1   C42,22.664,39.459,25,36.563,25z"/><path d="M41,29h-4c-0.552,0-1-0.448-1-1s0.448-1,1-1h4c0.552,0,1,0.448,1,1S41.552,29,41,29z"/><path d="M40,37c-0.552,0-1-0.448-1-1c0-1.57-1.581-3-3.317-3c-0.552,0-1-0.448-1-1s0.448-1,1-1C38.515,31,41,33.336,41,36   C41,36.552,40.552,37,40,37z"/><path d="M31,27c-2.346,0-4.56-0.585-6.235-1.649l-0.606-0.385l0.171-0.698C25.252,20.519,27.933,18,31,18s5.748,2.519,6.67,6.268   l0.171,0.698l-0.607,0.385C35.559,26.415,33.345,27,31,27z M26.482,24.024C27.748,24.649,29.353,25,31,25   c1.674,0,3.249-0.343,4.519-0.975C34.697,21.589,32.944,20,31,20S27.304,21.588,26.482,24.024z"/></g></svg>